<?xml version="1.0" encoding="UTF-8"?>
<svg id="a" data-name="Layer 1" xmlns="http://www.w3.org/2000/svg" viewBox="0 0 128 128">
  <defs>
    <style>
      .c, .d {
        stroke-width: 0px;
      }

      .d {
        fill: #fe5e41;
      }
    </style>
  </defs>
  <path class="d" d="m114.08,63.71c0,21.79-13.92,40.33-33.36,47.22-5.23,1.86-10.86,2.87-16.72,2.87-12.13,0-23.25-4.31-31.91-11.48-11.1-9.18-18.17-23.06-18.17-38.6,0-27.66,22.42-50.08,50.08-50.08s50.08,22.42,50.08,50.08Z"/>
  <path class="c" d="m96.08,72.93c-3.42-1.91-6.77-1.37-10.25.05-2.75,1.14-5.59,2.02-8.45,2.8-1.73.46-3.56.37-4.59-1.44-1.07-1.87.05-3.36,1.19-4.68,2.89-3.4,6.36-6.15,10.25-8.32,2.21-1.26,4.56-2.26,6.82-3.42,2.77-1.46,4.33-4.73,3.47-7.75-.91-3.29-3.63-5.71-6.94-6.25-4.33-.68-7.38,1.12-9.36,5.24-1.35,2.8-2.73,5.66-4.52,8.18-1.19,1.68-2.51,3.24-3.94,4.73-9.64,10.11-13.51,7.77-7.78-4.96.03-.04.05-.07.05-.09.93-2.01,2.07-3.92,3.12-5.84,1.98-3.63,1.54-7.06-1.49-9.81-1.01-.91-2.31-1.68-3.54-2.3-.39-.18-.82-.3-1.28-.35-.93-.09-2.56-.13-4.08.44-3.24,1.26-4.82,3.19-4.58,6.64.11,2,.68,4.01,1.32,5.92,1.28,3.75,1.82,7.75,1.19,11.69-.65,3.99-2.08,7.78-3.8,11.49-3.54,7.56-8.71,14.02-14.16,20.26-1.4,1.61-2.63,3.37-3.68,5.22-.18.3-.32.63-.44.95.49.51.98,1.01,1.49,1.5,8.73,7.22,19.94,11.57,32.15,11.57,5.91,0,11.58-1.01,16.85-2.89,1.16-.51,2.3-1.07,3.4-1.68-4.61-3.24-19.43-8.13-19.43-8.13l-.02.03c-.12-.05-.23-.1-.37-.14-1.3-.39-2.58-.84-3.89-1.17-1.44-.37-2.94-.61-4.38-1-2.28-.61-3.17-2.89-1.96-4.92.44-.75.93-1.44,1.54-2.02,7.6-7.27,16.4-10.72,26.97-8.22,2.94.7,5.8,1.73,8.76,2.4,3.19.72,5.94-.46,7.5-3.01,2.16-3.56.72-8.52-3.15-10.69Zm-11.69-23.12c1.76-1.58,4.26-1.68,5.57-.22,1.32,1.46.95,3.93-.81,5.51-1.77,1.58-4.26,1.68-5.58.22-1.31-1.46-.94-3.94.82-5.51Zm-30.48-3.27c0-2.37,1.49-4.3,3.33-4.3s3.33,1.92,3.33,4.3-1.49,4.29-3.33,4.29-3.33-1.92-3.33-4.29Zm38.31,36.54c-2.37,0-4.29-1.59-4.29-3.56s1.92-3.56,4.29-3.56,4.3,1.59,4.3,3.56-1.92,3.56-4.3,3.56Z"/>
</svg>